<?xml version="1.0" standalone="no"?>
<!DOCTYPE svg PUBLIC "-//W3C//DTD SVG 20010904//EN"
 "http://www.w3.org/TR/2001/REC-SVG-20010904/DTD/svg10.dtd">
<svg version="1.0" xmlns="http://www.w3.org/2000/svg"
 width="243.000000pt" height="227.000000pt" viewBox="0 0 243.000000 227.000000"
 preserveAspectRatio="xMidYMid meet">

<g transform="translate(0.000000,227.000000) scale(0.100000,-0.100000)"
fill="#000000" stroke="none">
<path d="M905 2003 c-27 -7 -55 -33 -66 -62 -12 -31 6 -88 32 -101 15 -9 19
-22 19 -65 0 -29 -4 -57 -10 -60 -5 -3 -10 -19 -10 -35 0 -16 5 -32 10 -35 6
-3 10 -33 10 -66 l0 -59 -60 0 -60 0 0 -55 0 -55 -54 0 c-30 0 -58 5 -61 10
-8 13 -62 13 -70 0 -3 -6 -52 -10 -111 -10 l-104 0 0 -54 c0 -43 -4 -58 -20
-69 -77 -54 -47 -167 45 -167 46 0 79 26 90 71 7 30 -17 86 -41 96 -8 3 -14
18 -14 34 0 29 0 29 63 29 40 0 77 -6 97 -17 31 -15 36 -15 63 0 16 10 49 17
73 17 l44 0 0 -110 0 -110 -54 0 c-30 0 -58 5 -61 10 -3 6 -19 10 -35 10 -39
0 -65 -37 -51 -72 15 -39 67 -52 91 -23 8 10 30 15 61 15 l49 0 0 -110 0 -110
-54 0 c-30 0 -58 5 -61 10 -3 6 -19 10 -35 10 -16 0 -32 -4 -35 -10 -3 -5 -28
-10 -55 -10 -38 0 -52 4 -60 19 -5 11 -25 24 -43 30 -47 16 -91 -1 -111 -43
-45 -96 75 -173 149 -96 34 35 77 39 124 13 30 -17 32 -17 62 0 17 9 51 17 75
17 l44 0 0 -55 0 -54 63 -3 62 -3 0 -55 0 -55 -94 -3 c-86 -3 -95 -1 -108 18
-34 48 -114 45 -147 -5 -20 -30 -20 -58 -1 -95 27 -53 116 -59 147 -10 11 18
23 20 99 20 65 0 90 -4 99 -15 16 -20 54 -19 74 1 18 17 22 69 6 79 -5 3 -10
33 -10 66 l0 60 108 -3 107 -3 3 -49 c2 -33 -3 -60 -14 -82 -17 -30 -17 -34
-1 -58 12 -18 26 -26 46 -26 46 0 68 41 45 86 -9 17 -14 48 -12 79 l3 50 105
0 105 0 3 -50 c2 -31 -3 -62 -12 -79 -16 -31 -12 -54 12 -73 26 -21 60 -15 79
13 16 24 16 28 -1 58 -11 22 -16 49 -14 82 3 42 6 49 25 52 28 4 71 47 75 75
3 20 9 22 63 22 l60 0 3 -75 c3 -73 2 -77 -28 -105 -75 -72 -6 -187 91 -153
61 21 77 103 29 148 -28 26 -30 33 -30 103 0 42 5 79 10 82 14 9 13 68 -2 83
-15 15 -64 16 -73 2 -3 -5 -31 -10 -61 -10 l-54 0 0 110 0 110 48 -1 c26 -1
56 -8 67 -16 26 -17 50 -17 69 3 19 18 21 65 4 82 -15 15 -64 16 -73 2 -3 -5
-31 -10 -61 -10 l-54 0 0 110 0 110 48 0 c26 0 56 -7 66 -15 41 -31 86 -7 86
44 0 39 -22 55 -62 46 -18 -3 -57 -9 -85 -12 l-53 -5 0 56 0 55 -52 3 -53 3
-3 39 c-2 22 -1 50 2 63 6 22 11 23 82 23 72 0 78 -2 104 -30 46 -50 119 -38
145 23 40 97 -74 173 -145 97 -26 -27 -34 -30 -92 -30 -40 0 -78 6 -97 16 -62
31 -107 -16 -77 -78 9 -17 16 -53 16 -80 l0 -48 -110 0 -110 0 0 59 c0 33 5
63 10 66 17 11 11 61 -10 80 -25 23 -67 13 -82 -21 -10 -21 -9 -31 6 -58 11
-21 16 -48 14 -77 l-3 -44 -107 -3 -108 -3 0 60 c0 33 5 63 10 66 6 3 10 19
10 35 0 16 -4 32 -10 35 -5 3 -10 31 -10 60 0 43 4 56 19 65 26 13 44 70 32
101 -17 45 -63 72 -106 62z m49 -79 c8 -21 -1 -34 -24 -34 -22 0 -34 15 -26
35 7 20 42 19 50 -1z m844 -226 c14 -14 -2 -48 -23 -48 -21 0 -37 34 -23 48 7
7 17 12 23 12 6 0 16 -5 23 -12z m-238 -588 c0 -335 -1 -350 -19 -360 -13 -6
-146 -10 -365 -10 l-346 0 0 344 c0 189 3 351 6 360 5 14 47 16 365 16 l359 0
0 -350z m-1140 114 c11 -12 10 -18 -3 -31 -8 -9 -23 -13 -31 -10 -19 8 -21 43
-3 50 20 9 24 8 37 -9z m-1 -387 c15 -19 -10 -53 -33 -44 -16 6 -22 38 -9 50
10 11 30 8 42 -6z m229 -305 c4 -28 -24 -40 -45 -19 -14 13 -14 19 -3 32 18
22 44 15 48 -13z m1151 15 c15 -19 -10 -53 -33 -44 -16 6 -22 38 -9 50 10 11
30 8 42 -6z"/>
<path d="M1030 1095 l0 -165 165 0 165 0 0 165 0 165 -165 0 -165 0 0 -165z
m270 0 l0 -105 -105 0 -105 0 0 105 0 105 105 0 105 0 0 -105z"/>
<path d="M1933 1180 c-31 -13 -56 -65 -48 -101 22 -101 176 -86 175 18 -1 71
-60 110 -127 83z m65 -78 c4 -28 -24 -40 -45 -19 -14 13 -14 19 -3 32 18 22
44 15 48 -13z"/>
</g>
</svg>
